<svg width="512" height="512" viewBox="0 0 512 512" xmlns="http://www.w3.org/2000/svg">
  <!-- Background -->
  <rect width="512" height="512" fill="#e0f7ff"/>
  <!-- Simplified outline of India -->
  <path d="M256,80 
           L306,60 
           L356,100 
           L386,150 
           L376,210 
           L346,260 
           L306,300 
           L256,340 
           L206,340 
           L166,310 
           L136,260 
           L126,200 
           L136,140 
           L156,100 
           Z"
        fill="#f5f5f5" stroke="#333" stroke-width="4"/>
  <!-- Forest region -->
  <circle cx="210" cy="180" r="45" fill="#66bb6a" opacity="0.8"/>
  <!-- Desert region -->
  <ellipse cx="300" cy="250" rx="55" ry="35" fill="#ffcc80" opacity="0.8"/>
  <!-- Mountain region -->
  <polygon points="260,260 280,230 300,260 280,300" fill="#8d6e63" opacity="0.8"/>
  <!-- Wetland region -->
  <path d="M340,180 
           q30,20 0,40 
           q-30,20 -60,0 
           q-30,-20 0,-40 
           q30,-20 60,0"
        fill="#81d4fa" opacity="0.8"/>
</svg>